P3
# Created by GIMP version 2.10.8 PNM plug-in
10 10
255
0
0
0
0
0
0
150
159
0
211
224
0
235
250
0
235
250
0
211
224
0
150
159
0
0
0
0
0
0
0
0
0
0
184
196
0
240
255
0
240
255
0
240
255
0
240
255
0
240
255
0
240
255
0
184
196
0
0
0
0
150
159
0
240
255
0
240
255
0
240
255
0
240
255
0
240
255
0
240
255
0
240
255
0
240
255
0
150
159
0
211
224
0
240
255
0
240
255
0
240
255
0
240
255
0
240
255
0
240
255
0
240
255
0
240
255
0
211
224
0
235
250
0
240
255
0
240
255
0
240
255
0
240
255
0
240
255
0
240
255
0
240
255
0
240
255
0
235
250
0
235
250
0
240
255
0
240
255
0
240
255
0
240
255
0
240
255
0
240
255
0
240
255
0
240
255
0
235
250
0
211
224
0
240
255
0
240
255
0
240
255
0
240
255
0
240
255
0
240
255
0
240
255
0
240
255
0
211
224
0
150
159
0
240
255
0
240
255
0
240
255
0
240
255
0
240
255
0
240
255
0
240
255
0
240
255
0
150
159
0
0
0
0
184
196
0
240
255
0
240
255
0
240
255
0
240
255
0
240
255
0
240
255
0
184
196
0
0
0
0
0
0
0
0
0
0
150
159
0
211
224
0
235
250
0
235
250
0
211
224
0
150
159
0
0
0
0
0
0
0
