P3
# Created by GIMP version 2.10.8 PNM plug-in
10 10
255
255
204
153
255
204
153
255
204
153
255
204
153
255
204
153
255
204
153
255
204
153
255
204
153
255
204
153
255
204
153
255
204
153
102
51
255
102
51
255
102
51
255
102
51
255
102
51
255
102
51
255
102
51
255
102
51
255
255
204
153
255
204
153
102
51
255
102
255
51
102
255
51
102
255
51
102
255
51
102
255
51
102
255
51
102
51
255
255
204
153
255
204
153
102
51
255
102
255
51
255
51
102
255
51
102
255
51
102
255
51
102
102
255
51
102
51
255
255
204
153
255
204
153
102
51
255
102
255
51
255
51
102
255
153
255
255
153
255
255
51
102
102
255
51
102
51
255
255
204
153
255
204
153
102
51
255
102
255
51
255
51
102
255
153
255
255
153
255
255
51
102
102
255
51
102
51
255
255
204
153
255
204
153
102
51
255
102
255
51
255
51
102
255
51
102
255
51
102
255
51
102
102
255
51
102
51
255
255
204
153
255
204
153
102
51
255
102
255
51
102
255
51
102
255
51
102
255
51
102
255
51
102
255
51
102
51
255
255
204
153
255
204
153
102
51
255
102
51
255
102
51
255
102
51
255
102
51
255
102
51
255
102
51
255
102
51
255
255
204
153
255
204
153
255
204
153
255
204
153
255
204
153
255
204
153
255
204
153
255
204
153
255
204
153
255
204
153
255
204
153
