P3
# Created by GIMP version 2.10.8 PNM plug-in
10 10
255
255
254
0
255
254
0
255
254
0
255
254
0
255
254
0
255
254
0
255
254
0
255
254
0
255
254
0
255
254
0
255
254
0
8
0
255
255
254
0
8
0
255
255
254
0
255
254
0
8
0
255
255
254
0
8
0
255
255
254
0
255
254
0
255
0
0
8
0
255
255
0
0
255
0
0
255
0
0
255
0
0
8
0
255
255
0
0
255
254
0
255
254
0
8
0
255
255
0
0
8
0
255
255
0
0
255
0
0
8
0
255
255
0
0
8
0
255
255
254
0
255
254
0
255
0
0
255
0
0
255
0
0
255
254
0
255
254
0
255
0
0
255
0
0
255
0
0
255
254
0
255
254
0
8
0
255
255
0
0
255
0
0
255
254
0
255
254
0
255
0
0
255
0
0
8
0
255
255
254
0
255
254
0
255
0
0
8
0
255
255
0
0
255
0
0
255
0
0
255
0
0
8
0
255
255
0
0
255
254
0
255
254
0
255
0
0
255
0
0
8
0
255
8
0
255
8
0
255
8
0
255
255
0
0
255
0
0
255
254
0
255
254
0
255
254
0
255
254
0
255
254
0
255
254
0
255
254
0
255
254
0
255
254
0
255
254
0
255
254
0
255
254
0
255
254
0
255
254
0
255
254
0
255
254
0
255
254
0
255
254
0
255
254
0
255
254
0
255
254
0
